<?xml version="1.0" encoding="UTF-8" standalone="no"?>
<svg
   width="155"
   height="155"
   viewBox="0 0 155 155"
   fill="none"
   version="1.1"
   id="svg30"
   sodipodi:docname="ugold-inc-icon.svg"
   inkscape:version="1.1.2 (0a00cf5339, 2022-02-04)"
   xmlns:inkscape="http://www.inkscape.org/namespaces/inkscape"
   xmlns:sodipodi="http://sodipodi.sourceforge.net/DTD/sodipodi-0.dtd"
   xmlns="http://www.w3.org/2000/svg"
   xmlns:svg="http://www.w3.org/2000/svg">
  <defs
     id="defs34" />
  <sodipodi:namedview
     id="namedview32"
     pagecolor="#7f7f7f"
     bordercolor="#000000"
     borderopacity="0.25"
     inkscape:pageshadow="2"
     inkscape:pageopacity="0"
     inkscape:pagecheckerboard="0"
     showgrid="false"
     inkscape:zoom="4.6387097"
     inkscape:cx="77.823365"
     inkscape:cy="77.5"
     inkscape:window-width="1920"
     inkscape:window-height="1066"
     inkscape:window-x="0"
     inkscape:window-y="27"
     inkscape:window-maximized="1"
     inkscape:current-layer="svg30" />
  <circle
     cx="77.263206"
     cy="77.535202"
     fill="#ffffff"
     id="ellipse2"
     style="display:inline;fill:#212631;fill-opacity:1;stroke-width:2.85155"
     r="71.288506" />
  <path
     d="M8.31348 77.4705C8.31348 39.4251 39.1546 8.58521 77.1988 8.58521"
     stroke="#BF8D4C"
     stroke-width="2"
     stroke-linecap="square"
     id="path2" />
  <path
     d="M16.2042 65.8609L16.3989 65.925C16.339 66.0976 16.3159 66.2809 16.331 66.463C16.3423 66.5273 16.3668 66.5887 16.403 66.6431C16.4392 66.6976 16.4862 66.744 16.5411 66.7794C16.6577 66.8601 16.8357 66.9408 17.0766 67.0189L20.0088 67.9771C20.4635 68.1257 20.8504 68.2845 21.1681 68.4536C21.487 68.6214 21.7445 68.8213 21.9431 69.0519C22.1634 69.3029 22.3069 69.6116 22.3735 69.9793C22.4337 70.3444 22.3991 70.7274 22.2659 71.1296C22.1682 71.4328 22.0304 71.7214 21.856 71.9879C21.6948 72.2428 21.4707 72.452 21.2052 72.5951C20.9618 72.7232 20.7223 72.8103 20.484 72.8551C20.2496 72.8935 19.9793 72.8833 19.6744 72.8269C19.2952 72.7506 18.9212 72.6501 18.5548 72.5259L15.4958 71.5267C15.321 71.4603 15.1369 71.4214 14.9501 71.4114C14.8894 71.4105 14.8293 71.4244 14.7753 71.4521C14.7212 71.4798 14.6748 71.5204 14.6401 71.5703C14.5338 71.7127 14.4524 71.8721 14.3993 72.0417L14.2046 71.9776C14.3584 71.5681 14.5041 71.1556 14.6414 70.7402C14.7157 70.5135 14.7862 70.288 14.8515 70.0651L15.018 69.4938L15.2114 69.5578C15.154 69.7292 15.1246 69.9087 15.1243 70.0895C15.1251 70.1486 15.14 70.2067 15.1678 70.2589C15.1957 70.311 15.2357 70.3557 15.2845 70.3892C15.3818 70.4661 15.5509 70.5416 15.7917 70.6198L19.016 71.674C19.3313 71.778 19.652 71.8648 19.9767 71.9341C20.2791 71.9981 20.5609 72.0173 20.8196 71.9943C21.0745 71.9623 21.3 71.8636 21.4986 71.6997C21.6907 71.5306 21.8419 71.2757 21.9546 70.9311C22.116 70.4379 22.1326 70.0216 22.0058 69.6859C21.8642 69.329 21.6113 69.0271 21.2846 68.8251C20.9001 68.5715 20.4818 68.3731 20.0421 68.2359L17.0036 67.2431C16.8173 67.1722 16.6186 67.1399 16.4194 67.1483C16.3486 67.1522 16.2793 67.1701 16.2155 67.2012C16.1517 67.2322 16.0947 67.2756 16.0479 67.3289C15.9274 67.475 15.8361 67.6429 15.7789 67.8234L15.5842 67.7593C15.7093 67.4341 15.8272 67.106 15.9378 66.7755C16.0347 66.4726 16.1235 66.1672 16.2042 65.8596V65.8609Z"
     fill="#BF8D4C"
     stroke="#BF8D4C"
     stroke-width="0.1"
     id="path4" />
  <path
     d="M23.8684 49.4167C24.1181 49.0491 24.3756 48.7903 24.6421 48.6417C24.9034 48.488 25.1737 48.3625 25.4555 48.2651C25.5618 48.2293 25.6284 48.1921 25.6553 48.1524C25.7284 48.0448 25.6041 47.8578 25.2826 47.5888L25.4145 47.394C25.6156 47.5478 25.8641 47.7297 26.1601 47.9385C26.456 48.1473 26.8492 48.4188 27.3411 48.7532L27.2092 48.9479C26.9522 48.8291 26.6902 48.7214 26.4239 48.6251C26.1823 48.535 25.924 48.4987 25.6669 48.5188C25.3466 48.5418 25.0392 48.6469 24.7446 48.8352C24.4524 49.0143 24.2017 49.2536 24.0093 49.5371C23.8171 49.819 23.7134 50.1251 23.6967 50.4518C23.6788 50.7707 23.7441 51.1 23.8927 51.4407C24.0413 51.7802 24.2693 52.1209 24.5742 52.4604C24.8791 52.7909 25.2595 53.1124 25.7181 53.4237C26.7352 54.1141 27.5922 54.4561 28.2891 54.451C28.9808 54.4421 29.5611 54.0923 30.0299 53.4032C30.1561 53.2276 30.2482 53.0299 30.3015 52.8203C30.338 52.6639 30.3595 52.5043 30.3655 52.3438C30.3739 52.2262 30.3519 52.1084 30.3015 52.0018C30.2384 51.9138 30.1588 51.8389 30.0671 51.7814L29.2524 51.2281C29.0218 51.0705 28.8335 50.9757 28.6887 50.945C28.6188 50.9292 28.5462 50.9299 28.4766 50.947C28.407 50.9642 28.3424 50.9972 28.2878 51.0436C28.1225 51.1852 27.9777 51.349 27.8574 51.5304L27.6883 51.4164C27.7753 51.3021 27.8615 51.1872 27.947 51.0718C28.0393 50.936 28.1379 50.7964 28.2429 50.6542C28.3454 50.5004 28.4402 50.3621 28.5248 50.2378C28.726 49.945 28.9174 49.6455 29.0986 49.3399L29.2677 49.4552C29.2015 49.5512 29.157 49.6605 29.1371 49.7754C29.1294 49.8599 29.1678 49.9483 29.2549 50.0393C29.3446 50.1264 29.4945 50.2404 29.7033 50.3826L31.3814 51.5227L31.2661 51.6918C31.1538 51.6272 31.0331 51.5785 30.9074 51.547C30.7703 51.5035 30.6768 51.5188 30.6281 51.5919C30.6044 51.6276 30.5895 51.6684 30.5846 51.711C30.5777 51.7971 30.5769 51.8835 30.582 51.9697C30.5974 52.2516 30.5756 52.527 30.518 52.7934C30.4428 53.084 30.3152 53.3583 30.1414 53.603C29.7468 54.1859 29.2882 54.6047 28.7669 54.8622C28.241 55.1101 27.6527 55.194 27.0785 55.103C26.4765 55.0172 25.8616 54.7597 25.2339 54.3345C24.5742 53.8848 24.0836 53.3788 23.7646 52.8152C23.4568 52.2944 23.2998 51.6984 23.3111 51.0935C23.3285 50.4917 23.5223 49.9095 23.8684 49.4167Z"
     fill="#BF8D4C"
     stroke="#BF8D4C"
     stroke-width="0.1"
     id="path6" />
  <path
     d="M38.3948 32.4629C38.8982 32.053 39.4311 31.8096 39.9922 31.7302C40.5677 31.6486 41.1544 31.7414 41.6767 31.9966C42.2339 32.2477 42.7604 32.6781 43.2574 33.2879C43.7404 33.881 44.0542 34.4881 44.2003 35.1094C44.3501 35.7269 44.336 36.3161 44.158 36.8759C43.9725 37.4454 43.6221 37.947 43.1511 38.317C42.6477 38.727 42.1135 38.9729 41.546 39.0562C40.9706 39.1328 40.3853 39.0402 39.8615 38.7897C39.3056 38.5297 38.7817 38.098 38.2898 37.4934C37.8068 36.9003 37.4917 36.2918 37.3469 35.6705C37.2004 35.0893 37.2146 34.4791 37.3879 33.9053C37.5732 33.3353 37.9236 32.8333 38.3948 32.4629ZM38.4793 32.632C38.1418 32.901 37.9241 33.2922 37.8734 33.7208C37.8132 34.1666 37.8824 34.656 38.0797 35.1914C38.2833 35.723 38.6087 36.2636 39.0583 36.8144C39.5157 37.3755 39.9922 37.8021 40.4854 38.0954C40.9811 38.3798 41.4538 38.5271 41.9047 38.5399C42.3556 38.5425 42.7438 38.4118 43.0666 38.1479C43.4112 37.8674 43.6136 37.5049 43.6725 37.0591C43.7327 36.6133 43.661 36.1253 43.4586 35.5949C43.2255 35.0031 42.8975 34.4531 42.4876 33.9668C42.0264 33.3993 41.5486 32.974 41.0529 32.6909C40.5622 32.4027 40.0934 32.2554 39.6476 32.249C39.2241 32.2284 38.8079 32.364 38.4793 32.632Z"
     fill="#BF8D4C"
     stroke="#BF8D4C"
     stroke-width="0.1"
     id="path8" />
  <path
     d="M56.3893 20.9033L56.4713 21.0916C56.3047 21.1624 56.1507 21.2598 56.0152 21.3798C55.9716 21.42 55.9382 21.47 55.9179 21.5258C55.8976 21.5815 55.891 21.6413 55.8987 21.7001C55.9076 21.8231 55.9627 21.9998 56.0652 22.2317L58.102 26.8881C58.2006 27.1136 58.2941 27.2737 58.38 27.3698C58.4671 27.4658 58.5721 27.5107 58.6951 27.5004C58.871 27.4667 59.0418 27.4107 59.2036 27.3339L59.889 27.0341C60.1836 26.906 60.4078 26.7703 60.5615 26.6281C60.7108 26.5005 60.8198 26.3323 60.8753 26.1439C60.9266 25.9568 60.933 25.7391 60.8907 25.488C60.8355 25.1881 60.7584 24.8927 60.6601 24.6041L60.8766 24.5106C60.9419 24.713 61.0457 24.973 61.184 25.292C61.2366 25.4111 61.3147 25.5815 61.4197 25.8044C61.5286 26.0183 61.6478 26.2386 61.7759 26.4654C61.4518 26.5935 61.0892 26.7434 60.6883 26.9189C59.9163 27.2417 59.1497 27.5773 58.3889 27.9257C58.1356 28.0367 57.8837 28.1507 57.6331 28.2677C57.3757 28.3805 57.1335 28.4906 56.903 28.5982L56.8223 28.4099C57.0298 28.3049 57.1784 28.2101 57.2681 28.1255C57.3141 28.0861 57.3498 28.0359 57.3719 27.9793C57.394 27.9228 57.4019 27.8617 57.3949 27.8015C57.3821 27.6734 57.327 27.494 57.2283 27.2698L55.1916 22.6134C55.1241 22.4389 55.0299 22.276 54.9123 22.1305C54.8728 22.0846 54.8225 22.0491 54.766 22.0272C54.7094 22.0053 54.6484 21.9977 54.5882 22.005C54.4115 22.0202 54.2387 22.0652 54.0771 22.1382L53.9951 21.9512C54.4031 21.793 54.808 21.6268 55.2095 21.4529C55.4273 21.3568 55.6425 21.2607 55.8526 21.1608L56.3893 20.9033Z"
     fill="#BF8D4C"
     stroke="#BF8D4C"
     stroke-width="0.1"
     id="path10" />
  <path
     d="M75.1977 14.8161C76.4095 14.6444 77.3524 14.8199 78.0274 15.3451C78.7012 15.8639 79.1188 16.6876 79.2802 17.8174C79.3853 18.554 79.3315 19.2201 79.1188 19.8158C78.918 20.3973 78.5466 20.9049 78.0531 21.2723C77.5496 21.6553 76.9079 21.9012 76.1303 22.0127C75.9948 22.0311 75.859 22.0469 75.7229 22.0601C75.5526 22.078 75.3771 22.0985 75.1939 22.1241C74.7966 22.1702 74.4006 22.227 74.0064 22.2945C73.7758 22.3265 73.5914 22.3598 73.4517 22.3944L73.4223 22.1907C73.6503 22.1446 73.8194 22.0934 73.9283 22.037C73.9834 22.0113 74.0313 21.9723 74.0677 21.9236C74.1042 21.8749 74.128 21.8179 74.1371 21.7578C74.1614 21.6297 74.155 21.4452 74.1204 21.2018L73.4031 16.1688C73.385 15.9834 73.3383 15.8019 73.2647 15.6308C73.239 15.5759 73.2002 15.5281 73.1518 15.4917C73.1033 15.4553 73.0466 15.4314 72.9867 15.422C72.8121 15.3895 72.6332 15.3869 72.4577 15.4143L72.4282 15.2106L72.9919 15.1619C73.2224 15.1363 73.4479 15.103 73.6708 15.0646L74.4688 14.9313C74.766 14.8814 75.0081 14.843 75.1977 14.8161ZM74.971 15.0351C74.6597 15.0799 74.465 15.1658 74.3869 15.2939C74.3087 15.422 74.2946 15.6628 74.3446 16.0151L75.0671 21.0878C75.117 21.4388 75.1977 21.6655 75.3079 21.7667C75.4257 21.8679 75.6409 21.8948 75.9522 21.8513C76.6888 21.7462 77.2422 21.5336 77.6098 21.2108C77.9775 20.8828 78.2055 20.4511 78.2952 19.9131C78.3848 19.3751 78.3759 18.7397 78.2708 18.0019C78.1632 17.2448 77.9826 16.6312 77.7302 16.1637C77.483 15.6884 77.1359 15.3579 76.6875 15.1735C76.2469 14.9813 75.6743 14.9352 74.971 15.0351Z"
     fill="#BF8D4C"
     stroke="#BF8D4C"
     stroke-width="0.1"
     id="path12" />
  <path
     d="M146.084 77.4705C146.084 115.516 115.243 146.357 77.1987 146.357"
     stroke="#BF8D4C"
     stroke-width="2"
     stroke-linecap="square"
     id="path14" />
  <path
     d="M138.246 85.1412L138.047 85.0886C138.098 84.9128 138.111 84.7281 138.085 84.5468C138.071 84.4834 138.043 84.4237 138.004 84.3715C137.966 84.3192 137.916 84.2755 137.86 84.2432C137.688 84.148 137.503 84.0769 137.312 84.0318L134.332 83.235C133.926 83.1312 133.53 82.9932 133.147 82.8226C132.846 82.6892 132.573 82.5006 132.341 82.2666C132.102 82.0158 131.936 81.7037 131.862 81.3648C131.782 80.9819 131.797 80.5851 131.906 80.2093C131.987 79.9014 132.109 79.6058 132.268 79.3306C132.417 79.0654 132.622 78.8515 132.886 78.6901C133.105 78.5552 133.343 78.4541 133.592 78.3903C133.825 78.3391 134.095 78.334 134.403 78.3737C134.71 78.4134 135.088 78.4928 135.536 78.6132L138.645 79.4459C138.89 79.5099 139.073 79.5394 139.196 79.5291C139.257 79.5271 139.316 79.5101 139.368 79.4797C139.421 79.4493 139.465 79.4065 139.497 79.3549C139.595 79.2071 139.667 79.0439 139.711 78.872L139.91 78.9245C139.775 79.3407 139.652 79.7606 139.541 80.1837C139.478 80.4143 139.42 80.6436 139.368 80.8691L139.233 81.4493L139.036 81.3955C139.088 81.1701 139.109 80.9907 139.094 80.8601C139.09 80.8009 139.072 80.7436 139.041 80.6929C139.01 80.6423 138.968 80.5999 138.917 80.5693C138.756 80.4749 138.581 80.4062 138.399 80.3656L135.122 79.4894C134.802 79.4028 134.477 79.3335 134.149 79.2819C133.869 79.2357 133.584 79.231 133.303 79.2678C133.055 79.3119 132.825 79.4276 132.641 79.6009C132.459 79.7776 132.322 80.0415 132.229 80.3912C132.094 80.8921 132.099 81.3072 132.245 81.6364C132.395 81.9733 132.651 82.2474 133.011 82.4562C133.371 82.674 133.795 82.8469 134.283 82.9776L137.372 83.8051C137.617 83.8691 137.813 83.8909 137.96 83.8666C138.03 83.859 138.099 83.8374 138.161 83.8031C138.223 83.7687 138.277 83.7224 138.321 83.6667C138.416 83.5502 138.497 83.3811 138.563 83.1582L138.762 83.2107C138.654 83.5422 138.554 83.8762 138.462 84.2124C138.381 84.5199 138.309 84.8296 138.246 85.1412Z"
     fill="#BF8D4C"
     stroke="#BF8D4C"
     stroke-width="0.1"
     id="path16" />
  <path
     d="M131.487 101.977C131.258 102.358 131.015 102.63 130.756 102.793C130.503 102.96 130.24 103.101 129.964 103.213C129.86 103.254 129.795 103.295 129.771 103.336C129.704 103.448 129.839 103.628 130.174 103.878L130.052 104.08C129.797 103.909 129.54 103.741 129.279 103.578C128.971 103.386 128.564 103.135 128.054 102.829L128.176 102.627C128.447 102.734 128.714 102.828 128.978 102.906C129.24 102.985 129.495 103.007 129.74 102.97C130.059 102.931 130.36 102.81 130.642 102.605C130.931 102.404 131.163 102.156 131.34 101.864C131.512 101.585 131.602 101.263 131.601 100.934C131.597 100.594 131.511 100.259 131.351 99.9582C131.16 99.5936 130.912 99.2619 130.616 98.9757C130.254 98.6318 129.853 98.3305 129.422 98.0777C128.369 97.4424 127.494 97.1465 126.797 97.19C126.108 97.2374 125.547 97.6166 125.118 98.3301C124.99 98.5415 124.911 98.74 124.877 98.9283C124.849 99.0864 124.836 99.2468 124.839 99.4074C124.849 99.565 124.877 99.6764 124.923 99.7456C124.976 99.8173 125.058 99.8865 125.169 99.9531L126.012 100.462C126.252 100.605 126.444 100.69 126.589 100.714C126.66 100.726 126.733 100.722 126.802 100.701C126.87 100.68 126.934 100.643 126.986 100.594C127.101 100.495 127.234 100.325 127.388 100.081L127.564 100.188L127.324 100.546C127.239 100.687 127.148 100.831 127.051 100.979L126.792 101.41C126.607 101.713 126.432 102.023 126.267 102.338L126.093 102.233C126.154 102.134 126.192 102.022 126.206 101.907C126.21 101.821 126.166 101.735 126.074 101.648C125.927 101.53 125.771 101.424 125.607 101.33L123.869 100.284L123.975 100.107C124.078 100.162 124.201 100.203 124.342 100.234C124.48 100.268 124.572 100.248 124.619 100.172C124.64 100.135 124.653 100.093 124.656 100.05C124.66 100.006 124.656 99.9185 124.643 99.793C124.613 99.5179 124.62 99.2401 124.663 98.9668C124.712 98.7003 124.822 98.4249 124.995 98.138C125.358 97.5359 125.793 97.0914 126.299 96.8057C126.811 96.5294 127.394 96.4133 127.972 96.4727C128.577 96.5277 129.204 96.7494 129.854 97.1413C130.539 97.5538 131.057 98.0329 131.405 98.5786C131.755 99.1243 131.937 99.688 131.952 100.272C131.97 100.865 131.815 101.434 131.487 101.977Z"
     fill="#BF8D4C"
     stroke="#BF8D4C"
     stroke-width="0.1"
     id="path18" />
  <path
     d="M117.902 119.696C117.422 120.132 116.903 120.404 116.347 120.515C115.777 120.627 115.186 120.566 114.651 120.339C114.081 120.119 113.532 119.718 113.004 119.136C112.489 118.57 112.142 117.981 111.963 117.368C111.78 116.796 111.761 116.184 111.909 115.602C112.063 115.023 112.386 114.503 112.836 114.108C113.315 113.673 113.837 113.396 114.399 113.283C114.955 113.174 115.52 113.232 116.095 113.458C116.664 113.688 117.211 114.092 117.735 114.667C118.25 115.233 118.597 115.824 118.776 116.436C118.955 117.049 118.972 117.637 118.83 118.201C118.676 118.78 118.353 119.301 117.902 119.696ZM117.809 119.531C118.138 119.232 118.32 118.859 118.356 118.411C118.391 117.963 118.296 117.476 118.069 116.953C117.838 116.435 117.482 115.913 117.004 115.387C116.518 114.851 116.018 114.452 115.508 114.185C114.998 113.929 114.518 113.806 114.068 113.819C113.646 113.829 113.242 113.99 112.928 114.272C112.606 114.559 112.41 114.962 112.383 115.393C112.347 115.841 112.445 116.324 112.677 116.843C112.908 117.372 113.26 117.896 113.734 118.418C114.226 118.958 114.727 119.357 115.237 119.613C115.743 119.874 116.218 119.996 116.664 119.978C117.113 119.965 117.496 119.816 117.809 119.531Z"
     fill="#BF8D4C"
     stroke="#BF8D4C"
     stroke-width="0.1"
     id="path20" />
  <path
     d="M100.564 132.216L100.472 132.033C100.634 131.953 100.783 131.848 100.911 131.721C100.953 131.678 100.984 131.626 101.001 131.569C101.019 131.513 101.022 131.452 101.011 131.394C100.974 131.211 100.908 131.035 100.817 130.872L98.5288 126.334C98.4511 126.164 98.3484 126.007 98.2239 125.868C98.1836 125.824 98.1335 125.791 98.0777 125.772C98.022 125.752 97.9623 125.746 97.9037 125.754C97.7782 125.779 97.6116 125.843 97.4041 125.947L96.7367 126.284C96.4977 126.396 96.2784 126.545 96.0873 126.727C95.9452 126.862 95.8455 127.036 95.8003 127.227C95.758 127.416 95.7644 127.635 95.8208 127.883C95.8759 128.13 95.9681 128.419 96.0988 128.752L95.8874 128.859C95.7822 128.599 95.6651 128.343 95.5364 128.094C95.4788 127.979 95.3904 127.812 95.2738 127.594C95.1483 127.378 95.0176 127.164 94.8818 126.954C95.1995 126.81 95.5531 126.64 95.9451 126.443C96.337 126.252 96.6868 126.08 96.9916 125.927L97.513 125.663C97.7205 125.559 97.9447 125.442 98.1855 125.313C98.4289 125.19 98.6761 125.062 98.9221 124.929C99.1732 124.803 99.4089 124.68 99.6318 124.561L99.724 124.744C99.5677 124.827 99.423 124.931 99.2936 125.052C99.2496 125.094 99.2167 125.146 99.1977 125.203C99.1787 125.261 99.1742 125.322 99.1847 125.382C99.2039 125.51 99.2692 125.684 99.3794 125.905L101.667 130.443C101.744 130.614 101.847 130.771 101.972 130.91C102.063 131.001 102.173 131.038 102.303 131.019C102.427 131.01 102.595 130.956 102.806 130.857L102.898 131.04C102.498 131.217 102.103 131.404 101.713 131.603C101.499 131.71 101.291 131.819 101.086 131.931C100.876 132.045 100.701 132.139 100.564 132.216Z"
     fill="#BF8D4C"
     stroke="#BF8D4C"
     stroke-width="0.1"
     id="path22" />
  <path
     d="M82.1129 139.317C80.9139 139.554 79.9621 139.43 79.2601 138.943C78.5582 138.461 78.097 137.662 77.8741 136.542C77.7294 135.812 77.746 135.143 77.9253 134.536C78.0996 133.938 78.4288 133.435 78.9117 133.025C79.3946 132.616 80.021 132.334 80.7922 132.182C80.8921 132.161 81.0266 132.138 81.1957 132.111C81.3648 132.086 81.539 132.054 81.7209 132.018C82.115 131.951 82.5072 131.874 82.8969 131.785C83.1249 131.74 83.3068 131.696 83.4451 131.655L83.4848 131.856C83.3124 131.895 83.1458 131.957 82.9891 132.038C82.9355 132.067 82.8898 132.108 82.8561 132.159C82.8223 132.209 82.8016 132.267 82.7957 132.328C82.779 132.456 82.7957 132.64 82.8431 132.882L83.832 137.868C83.8807 138.115 83.937 138.293 83.9985 138.398C84.0274 138.452 84.0691 138.498 84.1198 138.531C84.1705 138.565 84.2287 138.586 84.2893 138.592C84.4123 138.616 84.5878 138.61 84.8171 138.571L84.8568 138.772L84.2983 138.852C84.069 138.89 83.8448 138.935 83.6245 138.985C83.3617 139.045 83.0986 139.105 82.8354 139.163C82.5408 139.228 82.3012 139.28 82.1129 139.317ZM82.3281 139.085C82.6368 139.025 82.8277 138.927 82.8981 138.796C82.9686 138.662 82.9699 138.421 82.9007 138.073L81.9041 133.048C81.8349 132.699 81.7414 132.478 81.6248 132.382C81.5019 132.288 81.2867 132.271 80.9779 132.333C80.2478 132.478 79.7072 132.721 79.3575 133.062C79.0078 133.409 78.8041 133.853 78.7439 134.395C78.685 134.936 78.7272 135.573 78.872 136.303C79.0206 137.053 79.2345 137.655 79.5125 138.109C79.7853 138.57 80.1491 138.88 80.6065 139.04C81.0574 139.209 81.6312 139.223 82.3281 139.085Z"
     fill="#BF8D4C"
     stroke="#BF8D4C"
     stroke-width="0.1"
     id="path24" />
  <path
     d="M62.1354 51.2012L77.7635 91.4884C78.404 93.1101 79.129 94.1989 79.9412 94.7549C80.752 95.2673 81.5001 95.544 82.1829 95.5875V96.8685C81.1395 96.7742 80.0921 96.7314 79.0445 96.7404C77.8066 96.6978 76.5682 96.6764 75.3296 96.6764C73.6643 96.6764 72.1053 96.6969 70.654 96.7404C69.2026 96.7404 68.0279 96.7814 67.1313 96.8685V95.5875C69.3089 95.5004 70.6963 95.1392 71.2945 94.4987C71.8927 93.8146 71.7646 92.3851 70.9102 90.2074L58.997 58.3747L60.0217 57.5421L48.8771 86.4925C48.1944 88.2001 47.7883 89.6514 47.6602 90.8479C47.5321 92.0008 47.6384 92.9179 47.9804 93.602C48.3647 94.2848 48.9834 94.7754 49.8379 95.0751C50.7346 95.3723 51.8439 95.544 53.1684 95.5875V96.8685C51.972 96.7814 50.7128 96.7404 49.3895 96.7404C48.1085 96.6969 46.9134 96.6764 45.8027 96.6764C44.7344 96.6764 43.8172 96.6969 43.0486 96.7404C42.3223 96.7404 41.6395 96.7814 40.999 96.8685V95.5875C41.8522 95.3723 42.7284 94.883 43.6251 94.1144C44.5217 93.3022 45.3326 91.9367 46.0589 90.0152L61.1106 51.2012H62.1354ZM69.9494 78.4222V79.7032H50.8627L51.5032 78.4222H69.9494Z"
     fill="#BF8D4C"
     stroke="#BF8D4C"
     stroke-width="0.25"
     id="path26" />
  <path
     d="M107.544 69.748V90.0953C107.544 91.5557 107.804 92.6432 108.323 93.3567C108.874 94.0382 109.847 94.379 111.244 94.379V95.4012C110.24 95.304 109.233 95.2552 108.225 95.2552C107.284 95.2552 106.376 95.3038 105.5 95.4012C104.702 95.4878 103.918 95.6675 103.163 95.9366V90.1927C102.352 92.3025 101.199 93.8115 99.7069 94.7197C98.2466 95.5959 96.7376 96.034 95.1799 96.034C94.0436 96.034 93.0534 95.8726 92.2105 95.5472C91.3664 95.2231 90.6695 94.7684 90.1174 94.1842C89.5012 93.5361 89.0798 92.6919 88.8518 91.653C88.625 90.6154 88.511 89.3331 88.511 87.8075V75.5894C88.511 74.129 88.251 73.0581 87.7322 72.3766C87.2134 71.6631 86.2398 71.3057 84.8115 71.3057V70.2835C85.8491 70.3809 86.856 70.4295 87.8295 70.4295C88.7711 70.4295 89.6626 70.3809 90.5068 70.2835C91.315 70.1698 92.1127 69.9907 92.892 69.748V88.8784C92.892 89.884 92.9561 90.8101 93.0867 91.653C93.2161 92.4972 93.5415 93.1774 94.0603 93.6975C94.5791 94.2176 95.4233 94.4763 96.5915 94.4763C97.8571 94.4763 98.9767 94.0869 99.9503 93.3081C100.956 92.5292 101.735 91.475 102.287 90.144C102.871 88.8143 103.163 87.3207 103.163 85.6657V75.5894C103.163 74.129 102.903 73.0581 102.384 72.3766C101.865 71.6631 100.892 71.3057 99.4635 71.3057V70.2835C100.501 70.3809 101.508 70.4295 102.482 70.4295C103.423 70.4295 104.315 70.3809 105.159 70.2835C105.967 70.1698 106.765 69.9907 107.544 69.748Z"
     fill="#BF8D4C"
     stroke="#BF8D4C"
     stroke-width="0.25"
     id="path28" />
</svg>
